<svg xmlns="http://www.w3.org/2000/svg">
  <symbol id="arrow-right" viewBox="0 0 24 24">
    <path d="M5 12h14" />
    <path d="m12 5 7 7-7 7" />
  </symbol>
  <symbol id="chevron-down" viewBox="0 0 24 24">
    <path d="m6 9 6 6 6-6" />
  </symbol>
  <symbol id="scroll-text" viewBox="0 0 24 24">
    <path d="M15 12h-5" />
    <path d="M15 8h-5" />
    <path d="M19 17V5a2 2 0 0 0-2-2H4" />
    <path d="M8 21h12a2 2 0 0 0 2-2v-1a1 1 0 0 0-1-1H11a1 1 0 0 0-1 1v1a2 2 0 1 1-4 0V5a2 2 0 1 0-4 0v2a1 1 0 0 0 1 1h3" />
  </symbol>
  <symbol id="sparkles" viewBox="0 0 24 24">
    <path d="M11.017 2.814a1 1 0 0 1 1.966 0l1.051 5.558a2 2 0 0 0 1.594 1.594l5.558 1.051a1 1 0 0 1 0 1.966l-5.558 1.051a2 2 0 0 0-1.594 1.594l-1.051 5.558a1 1 0 0 1-1.966 0l-1.051-5.558a2 2 0 0 0-1.594-1.594l-5.558-1.051a1 1 0 0 1 0-1.966l5.558-1.051a2 2 0 0 0 1.594-1.594z" />
    <path d="M20 2v4" />
    <path d="M22 4h-4" />
    <circle cx="4" cy="20" r="2" />
  </symbol>
  <symbol id="swords" viewBox="0 0 24 24">
    <polyline points="14.5 17.5 3 6 3 3 6 3 17.5 14.5" />
    <line x1="13" x2="19" y1="19" y2="13" />
    <line x1="16" x2="20" y1="16" y2="20" />
    <line x1="19" x2="21" y1="21" y2="19" />
    <polyline points="14.5 6.5 18 3 21 3 21 6 17.5 9.5" />
    <line x1="5" x2="9" y1="14" y2="18" />
    <line x1="7" x2="4" y1="17" y2="20" />
    <line x1="3" x2="5" y1="19" y2="21" />
  </symbol>
  <symbol id="x" viewBox="0 0 24 24">
    <path d="M18 6 6 18" />
    <path d="m6 6 12 12" />
  </symbol>
  <symbol id="library" viewBox="0 0 24 24">
    <path d="m16 6 4 14" />
    <path d="M12 6v14" />
    <path d="M8 8v12" />
    <path d="M4 4v16" />
  </symbol>
  <symbol id="gamepad" viewBox="0 0 24 24">
    <line x1="6" x2="10" y1="11" y2="11" />
    <line x1="8" x2="8" y1="9" y2="13" />
    <line x1="15" x2="15.01" y1="12" y2="12" />
    <line x1="18" x2="18.01" y1="10" y2="10" />
    <path d="M17.32 5H6.68a4 4 0 0 0-3.978 3.59c-.006.052-.01.101-.017.152C2.604 9.416 2 14.456 2 16a3 3 0 0 0 3 3c1 0 1.5-.5 2-1l1.414-1.414A2 2 0 0 1 9.828 16h4.344a2 2 0 0 1 1.414.586L17 18c.5.5 1 1 2 1a3 3 0 0 0 3-3c0-1.545-.604-6.584-.685-7.258-.007-.05-.011-.1-.017-.151A4 4 0 0 0 17.32 5z" />
  </symbol>
  <symbol id="shield" viewBox="0 0 24 24">
    <path d="M20 13c0 5-3.5 7.5-8 9-4.5-1.5-8-4-8-9V5l8-3 8 3z" />
  </symbol>
  <symbol id="settings" viewBox="0 0 24 24">
    <path d="M12.22 2h-.44a2 2 0 0 0-2 2v.18a2 2 0 0 1-1 1.73l-.43.25a2 2 0 0 1-2 0l-.15-.08a2 2 0 0 0-2.73.73l-.22.38a2 2 0 0 0 .73 2.73l.15.1a2 2 0 0 1 1 1.72v.51a2 2 0 0 1-1 1.74l-.15.09a2 2 0 0 0-.73 2.73l.22.38a2 2 0 0 0 2.73.73l.15-.08a2 2 0 0 1 2 0l.43.25a2 2 0 0 1 1 1.73V20a2 2 0 0 0 2 2h.44a2 2 0 0 0 2-2v-.18a2 2 0 0 1 1-1.73l.43-.25a2 2 0 0 1 2 0l.15.08a2 2 0 0 0 2.73-.73l.22-.38a2 2 0 0 0-.73-2.73l-.15-.09a2 2 0 0 1-1-1.74v-.51a2 2 0 0 1 1-1.74l.15-.09a2 2 0 0 0 .73-2.73l-.22-.38a2 2 0 0 0-2.73-.73l-.15.08a2 2 0 0 1-2 0l-.43-.25a2 2 0 0 1-1-1.73V4a2 2 0 0 0-2-2z" />
    <circle cx="12" cy="12" r="3" />
  </symbol>
  <symbol id="log-out" viewBox="0 0 24 24">
    <path d="M10 17l5-5-5-5" />
    <path d="M15 12H3" />
    <path d="M15 3h4a2 2 0 0 1 2 2v14a2 2 0 0 1-2 2h-4" />
  </symbol>
  <symbol id="wifi-off" viewBox="0 0 24 24">
    <path d="M12 20h.01" />
    <path d="M8.5 16.429a5 5 0 0 1 7 0" />
    <path d="M5 12.859a10 10 0 0 1 5.17-2.69" />
    <path d="M19 12.859a10 10 0 0 0-2.007-1.523" />
    <path d="M2 8.82a15 15 0 0 1 4.177-2.643" />
    <path d="M22 8.82a15 15 0 0 0-11.288-3.764" />
    <path d="m2 2 20 20" />
  </symbol>
  <symbol id="plus" viewBox="0 0 24 24">
    <path d="M5 12h14" />
    <path d="M12 5v14" />
  </symbol>
  <symbol id="map-pin" viewBox="0 0 24 24">
    <path d="M20 10c0 5-8 12-8 12S4 15 4 10a8 8 0 1 1 16 0Z" />
    <circle cx="12" cy="10" r="3" />
  </symbol>
  <symbol id="clock" viewBox="0 0 24 24">
    <circle cx="12" cy="12" r="10" />
    <polyline points="12 6 12 12 16 14" />
  </symbol>
  <symbol id="user" viewBox="0 0 24 24">
    <path d="M19 21v-2a4 4 0 0 0-4-4H9a4 4 0 0 0-4 4v2" />
    <circle cx="12" cy="7" r="4" />
  </symbol>
  <symbol id="archive" viewBox="0 0 24 24">
    <rect width="20" height="5" x="2" y="3" rx="1" />
    <path d="M4 8v11a2 2 0 0 0 2 2h12a2 2 0 0 0 2-2V8" />
    <path d="M10 12h4" />
  </symbol>
  <symbol id="rotate-ccw" viewBox="0 0 24 24">
    <path d="M3 12a9 9 0 1 0 3-6.7L3 8" />
    <path d="M3 3v5h5" />
  </symbol>
  <symbol id="trash" viewBox="0 0 24 24">
    <path d="M3 6h18" />
    <path d="M8 6V4c0-1 1-2 2-2h4c1 0 2 1 2 2v2" />
    <path d="M19 6l-1 14c0 1-1 2-2 2H8c-1 0-2-1-2-2L5 6" />
    <path d="M10 11v6" />
    <path d="M14 11v6" />
  </symbol>
  <symbol id="book-open" viewBox="0 0 24 24">
    <path d="M12 7v14" />
    <path d="M3 18a1 1 0 0 1-1-1V5a2 2 0 0 1 2-2h5a3 3 0 0 1 3 3v15a3 3 0 0 0-3-3Z" />
    <path d="M21 18a1 1 0 0 0 1-1V5a2 2 0 0 0-2-2h-5a3 3 0 0 0-3 3v15a3 3 0 0 1 3-3Z" />
  </symbol>
  <symbol id="users" viewBox="0 0 24 24">
    <path d="M16 21v-2a4 4 0 0 0-4-4H6a4 4 0 0 0-4 4v2" />
    <circle cx="9" cy="7" r="4" />
    <path d="M22 21v-2a4 4 0 0 0-3-3.87" />
    <path d="M16 3.13a4 4 0 0 1 0 7.75" />
  </symbol>
  <symbol id="dices" viewBox="0 0 24 24">
    <rect width="12" height="12" x="2" y="10" rx="2" />
    <path d="m14.5 2.5 7 7a2 2 0 0 1 0 3l-5 5" />
    <path d="m14 7 3-3" /><path d="m18 11 1-1" />
    <path d="M6 14h.01M10 18h.01" />
  </symbol>
  <symbol id="music" viewBox="0 0 24 24">
    <path d="M9 18V5l12-2v13" />
    <circle cx="6" cy="18" r="3" /><circle cx="18" cy="16" r="3" />
  </symbol>
  <symbol id="send" viewBox="0 0 24 24">
    <path d="m22 2-7 20-4-9-9-4Z" /><path d="M22 2 11 13" />
  </symbol>
  <symbol id="terminal" viewBox="0 0 24 24">
    <polyline points="4 17 10 11 4 5" /><line x1="12" x2="20" y1="19" y2="19" />
  </symbol>
  <symbol id="volume-1" viewBox="0 0 24 24">
    <polygon points="11 5 6 9 2 9 2 15 6 15 11 19 11 5" />
    <path d="M15.54 8.46a5 5 0 0 1 0 7.07" />
  </symbol>
  <symbol id="volume-2" viewBox="0 0 24 24">
    <polygon points="11 5 6 9 2 9 2 15 6 15 11 19 11 5" />
    <path d="M15.54 8.46a5 5 0 0 1 0 7.07" />
    <path d="M19.07 4.93a10 10 0 0 1 0 14.14" />
  </symbol>
</svg>
